<?xml version="1.0" encoding="UTF-8"?>
<svg id="_Слой_1" data-name="Слой 1" xmlns="http://www.w3.org/2000/svg" viewBox="0 0 554.2490234375 146.3295898438">
  <defs>
    <style>
      .cls-1, .cls-2 {
        fill: none;
        stroke: #fff;
        stroke-miterlimit: 10;
      }

      .cls-2 {
        stroke-width: .5px;
      }
    </style>
  </defs>
  <g>
    <path class="cls-1" d="m144.7275390625,87.9936523438c-3.1533203125,4.34375-7.3955078125,8.5546875-12.7255859375,12.6298828125-5.33203125,4.0751953125-11.1879882812,6.115234375-17.568359375,6.115234375-6.7573242188,0-12.275390625-1.962890625-16.5551757812-5.88671875-4.279296875-3.923828125-6.4189453125-9.732421875-6.4189453125-17.4296875,0-5.2578125.9008789062-11.201171875,2.7026367188-17.8310546875,1.8022460938-6.62890625,3.9028320312-12.3813476562,6.306640625-17.2587890625,2.4775390625-4.9521484375,5.349609375-9.0668945312,8.615234375-12.3442382812,3.2661132812-3.275390625,6.5498046875-4.9145507812,9.8540039062-4.9145507812,3.2275390625,0,5.724609375,1.1821289062,7.4892578125,3.54296875,1.7631835938,2.3627929688,2.646484375,5.296875,2.646484375,8.8012695312,0,1.2963867188-.2446289062,2.6108398438-.7319335938,3.9428710938-.4892578125,1.3344726562-1.0327148438,2.4575195312-1.6328125,3.3720703125-.6020507812.9140625-1.0522460938,1.3715820312-1.3515625,1.3715820312-.6015625,0-.9008789062-.3427734375-.9008789062-1.0288085938,0-.228515625.1303710938-.7431640625.3940429688-1.54296875.2622070312-.8002929688.3940429688-1.4663085938.3940429688-2.0004882812,0-1.9033203125-.2250976562-3.6948242188-.6752929688-5.3715820312-.376953125-1.4467773438-1.1264648438-2.6469726562-2.2524414062-3.6005859375-1.1264648438-.9516601562-2.365234375-1.4287109375-3.7163085938-1.4287109375-5.4057617188,0-10.4736328125,5.296875-15.2036132812,15.8872070312-1.8774414062,4.2685546875-3.4541015625,9.0688476562-4.7299804688,14.4018554688-1.27734375,5.333984375-1.9145507812,10.4775390625-1.9145507812,15.4296875,0,3.4296875.693359375,6.5546875,2.0834960938,9.373046875,1.3881835938,2.8193359375,3.3784179688,5.068359375,5.96875,6.7431640625,2.5903320312,1.6767578125,5.611328125,2.5146484375,9.0659179688,2.5146484375,5.4794921875,0,10.4541015625-1.33203125,14.921875-4,4.4658203125-2.6669921875,8.8774414062-6.095703125,13.232421875-10.287109375.1494140625-.15234375.67578125-1.0087890625,1.5766601562-2.572265625.9008789062-1.560546875,1.5766601562-2.3427734375,2.0268554688-2.3427734375.4506835938,0,.75.1142578125.9013671875.3427734375.1494140625.228515625.2250976562.6484375.2250976562,1.2578125,0,.7626953125-.67578125,2.1337890625-2.02734375,4.1142578125Z"/>
    <path class="cls-1" d="m185.2690429688,90.9653320312c-2.1787109375,3.88671875-5.2563476562,7.220703125-9.2348632812,10.0009765625-3.98046875,2.783203125-8.5219726562,4.171875-13.6264648438,4.171875-5.03125,0-8.7475585938-1.4091796875-11.1494140625-4.228515625-2.4038085938-2.818359375-3.6040039062-6.32421875-3.6040039062-10.515625,0-3.6572265625.6567382812-8.1904296875,1.9711914062-13.6015625,1.3125-5.4091796875,3.1708984375-10.2475585938,5.57421875-14.515625.1499023438-.3037109375.7690429688-1.4287109375,1.8583984375-3.3715820312,1.0874023438-1.943359375,2.30859375-3.4291992188,3.66015625-4.4580078125,1.3515625-1.0283203125,2.7768554688-1.54296875,4.279296875-1.54296875.67578125,0,1.2954101562.1713867188,1.8583984375.5146484375.5629882812.3427734375.8447265625.7822265625.8447265625,1.314453125,0,.1533203125-.2080078125.5141601562-.6196289062,1.0854492188-.4135742188.5717773438-.7319335938,1.0112304688-.95703125,1.314453125-2.5532226562,3.1254882812-4.6176757812,6.2114257812-6.1943359375,9.2583007812-2.1025390625,3.8862304688-3.7353515625,7.7348632812-4.8989257812,11.5444335938-1.1645507812,3.810546875-1.7451171875,7.962890625-1.7451171875,12.4580078125,0,6.0205078125,3.603515625,9.029296875,10.8110351562,9.029296875,3.3784179688,0,6.5126953125-.9892578125,9.4038085938-2.9716796875,2.8891601562-1.98046875,5.1977539062-4.400390625,6.92578125-7.2578125,1.7260742188-2.857421875,2.5903320312-5.466796875,2.5903320312-7.8291015625,0-2.6669921875-.8642578125-4.990234375-2.5903320312-6.97265625-1.7280273438-1.98046875-4.0927734375-4.0751953125-7.0947265625-6.2861328125-1.953125-1.4462890625-3.37890625-2.62890625-4.2797851562-3.54296875-.9008789062-.9145507812-1.3510742188-1.6752929688-1.3510742188-2.2861328125,0-.9145507812.63671875-1.6572265625,1.9145507812-2.2290039062,1.275390625-.5712890625,2.7763671875-.8569335938,4.5043945312-.8569335938.9750976562,0,1.6137695312.0571289062,1.9145507812.1713867188.2993164062.1142578125.4506835938.3251953125.4506835938.6284179688,0,.1538085938-.1323242188.400390625-.39453125.7431640625-.263671875.3427734375-.3940429688.6284179688-.3940429688.857421875,0,.228515625.7495117188.9907226562,2.2524414062,2.2856445312,3.001953125,2.5146484375,5.5180664062,5.068359375,7.5454101562,7.6577148438,2.02734375,2.591796875,3.0405273438,5.640625,3.0405273438,9.14453125,0,2.9716796875-1.0888671875,6.400390625-3.265625,10.2861328125Z"/>
    <path class="cls-1" d="m267.8168945312,105.5385742188c-.6015625.646484375-1.3901367188.9716796875-2.3647460938.9716796875-1.3515625,0-2.02734375-.685546875-2.02734375-2.0576171875,0-15.390625-.4887695312-27.18359375-1.4638671875-35.375-.9765625-8.1904296875-2.666015625-12.287109375-5.0678710938-12.287109375-4.0541992188,0-9.9858398438,14.3642578125-17.7934570312,43.08984375v.1142578125c0,.9150390625-.30078125,1.697265625-.9008789062,2.34375-.6020507812.6484375-1.3901367188.9716796875-2.365234375.9716796875-1.3510742188,0-2.0268554688-.6865234375-2.0268554688-2.0576171875,0-3.046875.1494140625-7.7724609375.4501953125-14.1728515625.2993164062-7.1611328125.4506835938-12.8017578125.4506835938-16.916015625,0-5.71484375-.1689453125-9.7724609375-.5068359375-12.1728515625s-1.0698242188-3.6005859375-2.1962890625-3.6005859375c-2.5532226562,0-5.7822265625,4.7436523438-9.6850585938,14.23046875-3.9047851562,9.486328125-7.9956054688,20.669921875-12.275390625,33.5458984375l-1.0131835938,2.9716796875c-.3012695312.7607421875-.732421875,1.4091796875-1.2954101562,1.943359375-.5629882812.5322265625-1.1826171875.7998046875-1.8579101562.7998046875-.9013671875,0-1.5029296875-.076171875-1.8022460938-.228515625-.30078125-.1533203125-.4892578125-.6103515625-.5629882812-1.37109375-.3764648438-3.732421875-.67578125-8.724609375-.9008789062-14.9736328125-.1513671875-1.599609375-.30078125-4.228515625-.4506835938-7.8857421875-.7509765625-12.876953125-1.4267578125-21.5830078125-2.0268554688-26.1176757812-.6020507812-4.5322265625-.9008789062-7.06640625-.9008789062-7.6005859375,0-.6088867188.298828125-1.33203125.9008789062-2.171875.6000976562-.8374023438,1.1630859375-1.2568359375,1.6889648438-1.2568359375,1.2001953125,0,2.1767578125.8764648438,2.9282226562,2.6284179688.375.83984375.7885742188,4.1918945312,1.2387695312,10.05859375.4506835938,5.8681640625.8251953125,13.14453125,1.1264648438,21.8310546875l.5629882812,17.4873046875c4.1279296875-12.953125,8.4077148438-24.7060546875,12.8383789062-35.2607421875,4.4291992188-10.5532226562,8.4833984375-15.8305664062,12.1625976562-15.8305664062,2.4775390625,0,4.1669921875,1.8291015625,5.0678710938,5.486328125.9008789062,3.6577148438,1.3515625,8.9545898438,1.3515625,15.8872070312,0,3.658203125-.0756835938,8.9150390625-.2250976562,15.7734375l-.1127929688,5.2578125c3.0776367188-10.896484375,6.1376953125-20.0400390625,9.1782226562-27.431640625,3.041015625-7.3901367188,6.0991210938-11.0869140625,9.1782226562-11.0869140625,7.7319335938,0,11.6000976562,17.373046875,11.6000976562,52.1201171875,0,.9140625-.3012695312,1.6943359375-.9013671875,2.3427734375Z"/>
    <path class="cls-2" d="m339.783203125,104.3383789062v-4.2294921875c8.5595703125-.9140625,9.123046875-1.7138671875,9.123046875-12.001953125l-.11328125-44.578125c-8.1083984375,19.66015625-17.005859375,41.3779296875-25.115234375,60.8095703125h-3.716796875c-7.3203125-18.6318359375-15.31640625-39.8920898438-23.42578125-59.8950195312-1.4638671875,35.8911132812-1.4638671875,42.9780273438-1.4638671875,47.0932617188.1123046875,6.171875,2.365234375,7.7724609375,10.8115234375,8.572265625v4.2294921875h-27.9306640625v-4.2294921875c6.419921875-.5712890625,9.34765625-1.828125,10.2490234375-8.6865234375.4501953125-3.4296875.900390625-9.9443359375,3.4912109375-47.6650390625.337890625-5.486328125-.4501953125-8.5727539062-10.13671875-9.4868164062v-4.2294921875h24.3271484375l21.7373046875,50.4077148438,21.8486328125-50.4077148438h23.7646484375v4.2294921875c-9.0107421875.9140625-10.0244140625,1.8286132812-9.798828125,10.9731445312l.9013671875,42.86328125c.1123046875,10.2880859375.5625,10.7451171875,9.685546875,12.001953125v4.2294921875h-34.23828125Z"/>
    <path class="cls-2" d="m444.1796875,84.9067382812c-.5625,3.0859375-3.716796875,16.2314453125-4.73046875,19.431640625h-58.4521484375v-4.115234375c10.2490234375-1.0283203125,10.9248046875-1.599609375,10.9248046875-11.201171875v-43.6640625c0-9.7158203125-1.3515625-10.4018554688-9.009765625-11.0874023438v-4.2294921875h36.6025390625c11.826171875,0,15.767578125-.1142578125,17.3447265625-.228515625.1123046875,2.0576171875.67578125,11.4301757812,1.1259765625,18.5170898438l-4.392578125.5717773438c-1.013671875-3.88671875-2.927734375-8.5727539062-4.8427734375-10.6303710938-2.02734375-2.2861328125-3.4912109375-2.9721679688-9.2353515625-2.9721679688h-7.3203125c-4.279296875,0-4.73046875.2290039062-4.73046875,4.115234375v23.8891601562h11.037109375c6.3076171875,0,7.43359375-1.7143554688,9.123046875-9.830078125h4.392578125v25.490234375h-4.392578125c-1.8017578125-8.458984375-2.703125-9.8305664062-9.2353515625-9.8305664062h-10.9248046875v19.6606445312c0,7.88671875.2255859375,10.287109375,7.2080078125,10.4013671875h7.9970703125c6.306640625,0,7.99609375-.7998046875,10.4736328125-3.88671875,2.8154296875-3.314453125,5.068359375-7.5439453125,6.8701171875-11.4296875l4.1669921875,1.0283203125Z"/>
    <path class="cls-1" d="m489.55859375,107.4819335938c-.7509765625.646484375-1.65234375.970703125-2.703125.970703125-.7509765625,0-1.3896484375-.1708984375-1.9140625-.513671875-.5263671875-.3427734375-.7880859375-.8203125-.7880859375-1.4287109375,0-3.1240234375.224609375-7.9619140625.67578125-14.515625.4501953125-7.009765625.67578125-12.8388671875.67578125-17.48828125,0-4.4946289062-.1328125-8.171875-.39453125-11.029296875-.263671875-2.857421875-.8837890625-4.2861328125-1.8583984375-4.2861328125-2.552734375,0-5.349609375,3.2197265625-8.3896484375,9.658203125-3.041015625,6.439453125-6.5146484375,14.916015625-10.4169921875,25.4306640625l-1.689453125,4.572265625c-.30078125.7626953125-.8076171875,1.3720703125-1.5205078125,1.8291015625-.71484375.45703125-1.4462890625.685546875-2.1962890625.685546875-.900390625,0-1.5029296875-.0751953125-1.8017578125-.228515625-.30078125-.15234375-.4892578125-.609375-.5625-1.3720703125l-.9013671875-9.3720703125-1.689453125-16.458984375c-.5263671875-6.5522460938-1.1650390625-12.2670898438-1.9140625-17.14453125-.2255859375-1.1430664062-.337890625-2.0180664062-.337890625-2.62890625,0-1.1430664062.4873046875-2.0751953125,1.4638671875-2.8002929688.974609375-.7231445312,2.1005859375-1.0859375,3.37890625-1.0859375.7490234375,0,1.294921875,1.8291015625,1.6328125,5.486328125.337890625,3.6577148438.693359375,9.5634765625,1.0693359375,17.7163085938l.4501953125,6.0576171875c.6005859375,7.697265625.9384765625,12.5732421875,1.013671875,14.6298828125.2255859375-.45703125.431640625-.970703125.6201171875-1.54296875.1865234375-.5712890625.4306640625-1.2001953125.7314453125-1.8857421875,4.0546875-10.6669921875,7.8642578125-19.5625,11.4306640625-26.6884765625,3.5654296875-7.1240234375,7-10.6865234375,10.3046875-10.6865234375,2.326171875,0,3.9228515625,2,4.7861328125,6.0004882812.8623046875,4.0004882812,1.408203125,9.1259765625,1.6328125,15.3725585938.2255859375,6.935546875.337890625,17.0703125.337890625,30.4033203125,0,.9150390625-.3759765625,1.6953125-1.1259765625,2.34375Z"/>
    <path class="cls-1" d="m552.1171875,59.9907226562c-1.0888671875.6860351562-3.0595703125,1.2197265625-5.912109375,1.6005859375-6.908203125,1.2197265625-10.7744140625,1.9052734375-11.599609375,2.0571289062l-7.3203125,1.2573242188c0,3.962890625.056640625,8.115234375.1689453125,12.4580078125.1123046875,4.34375.28125,8.1552734375.5068359375,11.4296875.298828125,4.4208984375.8251953125,7.8115234375,1.5771484375,10.1728515625.7490234375,2.36328125,1.1630859375,3.697265625,1.23828125,4.0009765625,0,.76171875-.4697265625,1.4658203125-1.4072265625,2.1142578125-.9404296875.646484375-1.8212890625.9716796875-2.6474609375.9716796875-.4501953125,0-.826171875-.134765625-1.1259765625-.400390625-.30078125-.267578125-.5625-.705078125-.7880859375-1.314453125-.4501953125-1.06640625-.8837890625-3.046875-1.294921875-5.943359375-.4140625-2.8955078125-.732421875-6.095703125-.95703125-9.6015625-.2255859375-3.123046875-.39453125-6.7607421875-.5068359375-10.9150390625-.11328125-4.15234375-.1689453125-8.1723632812-.1689453125-12.0581054688-4.2060546875.685546875-8.5224609375,1.5249023438-12.951171875,2.5141601562-3.98046875.8393554688-6.345703125,1.2573242188-7.0947265625,1.2573242188-.9013671875,0-1.74609375-.2661132812-2.5341796875-.7998046875-.7880859375-.5322265625-1.1826171875-1.2573242188-1.1826171875-2.171875,0-.9892578125.337890625-1.6376953125,1.013671875-1.9428710938.67578125-.3037109375,1.8017578125-.4575195312,3.37890625-.4575195312,1.1259765625,0,2.7763671875-.208984375,4.955078125-.6284179688,2.1767578125-.41796875,3.564453125-.7036132812,4.166015625-.857421875,5.029296875-.9892578125,8.447265625-1.6376953125,10.2490234375-1.9428710938,0-1.6000976562-.076171875-3.6948242188-.2255859375-6.2866210938-.1513671875-3.50390625-.2255859375-6.171875-.2255859375-8.0004882812,0-2.9716796875.09375-5.2758789062.2822265625-6.9150390625.1865234375-1.6376953125.54296875-3.1040039062,1.0693359375-4.400390625.6005859375-1.5234375,1.7265625-2.2861328125,3.37890625-2.2861328125.67578125,0,1.1259765625.1142578125,1.3515625.3427734375.224609375.228515625.337890625.6484375.337890625,1.2573242188,0,.4575195312-.1884765625,1.7915039062-.5634765625,4.0004882812-.376953125,2.2109375-.5634765625,5.1435546875-.5634765625,8.80078125,0,2.8203125.07421875,5.9829101562.2255859375,9.4868164062l.1123046875,3.0859375c3.37890625-.5322265625,10.060546875-1.9428710938,20.046875-4.2290039062.599609375-.1518554688,1.1064453125-.685546875,1.51953125-1.6000976562.412109375-.9145507812.8447265625-1.3715820312,1.2958984375-1.3715820312.8251953125,0,1.669921875.4770507812,2.533203125,1.4287109375.8623046875.9536132812,1.294921875,1.9252929688,1.294921875,2.9145507812,0,1.296875-.544921875,2.2861328125-1.6328125,2.9716796875Z"/>
  </g>
  <g>
    <rect class="cls-1" x="36.375432526" y="64.9536690365" width="35.875432526" height="35.875432526"/>
    <rect class="cls-1" x=".5" y="64.9536690365" width="35.875432526" height="35.875432526"/>
    <rect class="cls-1" x=".5" y="29.0782365106" width="35.875432526" height="35.875432526"/>
    <line class="cls-1" x1="72.5" y1="64.7045340885" x2="36.624567474" y2="28.8291015625"/>
  </g>
</svg>